<svg width="1863" height="425" xmlns="http://www.w3.org/2000/svg" xmlns:xlink="http://www.w3.org/1999/xlink" xml:space="preserve" overflow="hidden"><g transform="translate(-234 -378)"><text fill="#1D83A3" font-family="Courier New,Courier New_MSFontService,sans-serif" font-weight="700" font-size="202" transform="matrix(1 0 0 1 629.406 617)">MedBrief</text><text fill="#1D83A3" font-family="Courier New,Courier New_MSFontService,sans-serif" font-weight="700" font-size="202" transform="matrix(1 0 0 1 1717.37 617)">ai</text><path d="M453 458C453 439.774 467.551 425 485.5 425 503.449 425 518 439.774 518 458 518 476.225 503.449 491 485.5 491 467.551 491 453 476.225 453 458Z" fill="#15B6A9" fill-rule="evenodd"/><path d="M453 551C453 532.775 467.551 518 485.5 518 503.449 518 518 532.775 518 551 518 569.225 503.449 584 485.5 584 467.551 584 453 569.225 453 551Z" fill="#15B6A9" fill-rule="evenodd"/><path d="M453 644C453 625.774 467.551 611 485.5 611 503.449 611 518 625.774 518 644 518 662.225 503.449 677 485.5 677 467.551 677 453 662.225 453 644Z" fill="#15B6A9" fill-rule="evenodd"/><path d="M388 507C388 488.775 402.551 474 420.5 474 438.449 474 453 488.775 453 507 453 525.225 438.449 540 420.5 540 402.551 540 388 525.225 388 507Z" fill="#24A1C8" fill-rule="evenodd"/><path d="M388 604C388 585.775 402.551 571 420.5 571 438.449 571 453 585.775 453 604 453 622.225 438.449 637 420.5 637 402.551 637 388 622.225 388 604Z" fill="#24A1C8" fill-rule="evenodd"/><path d="M323 559C323 540.775 337.551 526 355.5 526 373.449 526 388 540.775 388 559 388 577.225 373.449 592 355.5 592 337.551 592 323 577.225 323 559Z" fill="#0E60D8" fill-rule="evenodd"/><path d="M1872 501.5C1872 490.73 1880.73 482 1891.5 482 1902.27 482 1911 490.73 1911 501.5 1911 512.27 1902.27 521 1891.5 521 1880.73 521 1872 512.27 1872 501.5Z" fill="#C00000" fill-rule="evenodd"/></g></svg>